# xmcd
#
# Track frame offsets: 
#        150
#        19268
#        36132
#        57419
#        77123
#        95684
#        112346
#        128537
#        146619
#        163763
#        178897
#        200506
#        262424
#
# Disc length: 3952 seconds
#
# Revision: 3
# Processed by: cddbd v1.5.2PL0 Copyright (c) Steve Scherf et al.
# Submitted via: ExactAudioCopyFreeDBPlugin 1.0
#
DISCID=c60f6e0d
DTITLE=3LW - A Girl Can Mack
DYEAR=2002
DGENRE=R&B
TTITLE0=I Do (Wanna Get Close To You)
TTITLE1=Neva Get Enuf ft. Lil' Wayne
TTITLE2=I Need That (I Want That) ft. Lil' Kim
TTITLE3=Ain't No Maybe
TTITLE4=Ghetto Love and Heartbreak
TTITLE5=Good Good Girl
TTITLE6=Put 'Em Up ft. Treach
TTITLE7=This Goes Out
TTITLE8=Leave Wit You (I Think I Wanna)
TTITLE9=Crazy
TTITLE10=Funny
TTITLE11=One More Time - More Than Friends (Hidden Track)
TTITLE12=Data
EXTD=YEAR: 2002 ID3G: 14
EXTT0=
EXTT1=
EXTT2=
EXTT3=
EXTT4=
EXTT5=
EXTT6=
EXTT7=
EXTT8=
EXTT9=
EXTT10=
EXTT11=
EXTT12=
PLAYORDER=
